<svg viewBox="0 0 512 512" xmlns="http://www.w3.org/2000/svg" enable-background="new 0 0 512 512"><g fill="none" stroke="#000" stroke-linejoin="round" stroke-linecap="round" stroke-width="12" stroke-miterlimit="10"><path d="m439.7 197.4c1.8 5.6 2.7 11.8 2.9 18.6.4 21.8-14.7 46.4-43.9 53.2"/><path d="m398.7 161.2c11.2 3.3 20.5 8.2 27.6 14.8"/><path d="m377 269.1c-14.5-3.4-26.1-10.9-34.5-23.1-6.3-9.2-9.4-19.5-9.4-30.7 0-13 4.1-24.5 12.3-34.6 8.2-10 18.8-16.3 31.6-19.2"/><path d="m134.9 161.2c3.9 1.4 7.7 2.5 11.2 4.1 21.7 9.5 34.3 31 32.5 55.3-1.7 22.1-18.5 41.9-40.7 47.6"/><path d="m113.3 269.5c-27.9-8.4-43.8-26.4-43.8-56.1 0-22.4 15.8-45.5 43.8-52.1"/><path d="m217.1 267.4c6.6-6.7 15-11.8 24.5-14.3 1.1-.3 2.1-.6 3.6-1"/><path d="m241.7 358.7c-23.8-6.3-40.5-28.4-40.3-53 0-3.6.4-7.1 1.1-10.6"/><path d="m266.9 252.1c11.8 2.7 21.6 8.2 29.6 16.9 27.5 30.1 13.2 79.3-26.2 89.7"/></g><path d="m124.1 148.6c-2.8 0-5-2.2-5-5v-73c0-2.8 2.2-5 5-5 2.8 0 5 2.2 5 5v73c0 2.7-2.3 5-5 5"/><path d="m124.1 446.6c-2.8 0-5-2.2-5-5v-57.2c0-2.8 2.2-5 5-5 2.8 0 5 2.2 5 5v57.2c0 2.7-2.3 5-5 5"/><path d="m124.1 410.9c-2.8 0-5-2.2-5-5v-120.6c0-2.8 2.2-5 5-5 2.8 0 5 2.2 5 5v120.6c0 2.8-2.3 5-5 5"/><path d="m387.9 148.6c-2.8 0-5-2.2-5-5v-73c0-2.8 2.2-5 5-5 2.8 0 5 2.2 5 5v73c0 2.7-2.3 5-5 5"/><path d="m387.9 446.6c-2.8 0-5-2.2-5-5v-57.2c0-2.8 2.2-5 5-5 2.8 0 5 2.2 5 5v57.2c0 2.7-2.3 5-5 5"/><path d="m387.9 392.2c-2.8 0-5-2.2-5-5v-101.9c0-2.8 2.2-5 5-5 2.8 0 5 2.2 5 5v101.9c0 2.7-2.3 5-5 5"/><path d="m256 446.6c-2.8 0-5-2.2-5-5v-73c0-2.8 2.2-5 5-5 2.8 0 5 2.2 5 5v73c0 2.7-2.2 5-5 5"/><path d="m256 241.8c-2.8 0-5-2.2-5-5v-98.5c0-2.8 2.2-5 5-5 2.8 0 5 2.2 5 5v98.5c0 2.8-2.2 5-5 5"/><path d="m256 145c-2.8 0-5-2.2-5-5v-69.6c0-2.8 2.2-5 5-5 2.8 0 5 2.2 5 5v69.6c0 2.7-2.2 5-5 5"/></svg>